<svg id="Слой_1" data-name="Слой 1" xmlns="http://www.w3.org/2000/svg" viewBox="0 0 500 500"><rect width="500" height="500" style="fill:none"/><path d="M34.23,221.54q201.29-87.42,268.38-115.79C430.29,52.46,457.12,43.26,474.38,42.87c3.83,0,12.27.77,18,5.37,4.6,3.83,5.75,8.82,6.52,12.65a66.46,66.46,0,0,1,.76,18c-6.9,72.85-36.8,249.6-52.14,330.88-6.52,34.5-19.17,46-31.44,47.16-26.84,2.3-47.16-17.64-72.84-34.51C302.61,396,280,379.5,240.5,353.43c-45.62-29.91-16.1-46.39,10-73.23,6.9-6.9,124.61-114.26,126.91-123.84.38-1.15.38-5.75-2.3-8.05s-6.52-1.54-9.59-.77c-4.22.77-68.63,43.71-194,128.44-18.4,12.65-34.89,18.79-49.84,18.4-16.49-.38-47.93-9.2-71.7-16.87C21.2,268.31-1.81,263.33.11,247.23,1.26,238.79,12.76,230.36,34.23,221.54Z" transform="translate(0 0)" style="fill:#fff;fill-rule:evenodd"/></svg>